<?xml version="1.0" encoding="utf-8" standalone="no"?>
<!DOCTYPE svg PUBLIC "-//W3C//DTD SVG 1.1//EN"
  "http://www.w3.org/Graphics/SVG/1.1/DTD/svg11.dtd">
<!-- Created with matplotlib (http://matplotlib.org/) -->
<svg height="396pt" version="1.1" viewBox="0 0 576 396" width="576pt" xmlns="http://www.w3.org/2000/svg" xmlns:xlink="http://www.w3.org/1999/xlink">
 <defs>
  <style type="text/css">
*{stroke-linecap:butt;stroke-linejoin:round;}
  </style>
 </defs>
 <g id="figure_1">
  <g id="patch_1">
   <path d="M 0 396 
L 576 396 
L 576 0 
L 0 0 
z
" style="fill:none;opacity:0;"/>
  </g>
  <g id="axes_1">
   <g id="patch_2">
    <path d="M 72 352.44 
L 518.4 352.44 
L 518.4 47.52 
L 72 47.52 
z
" style="fill:#ffffff;"/>
   </g>
   <g id="matplotlib.axis_1">
    <g id="xtick_1">
     <g id="line2d_1">
      <path clip-path="url(#pcf00ef870c)" d="M 72 352.44 
L 72 47.52 
" style="fill:none;stroke:#cccccc;stroke-linecap:round;"/>
     </g>
     <g id="line2d_2"/>
     <g id="text_1">
      <!-- 0.0 -->
      <defs>
       <path d="M 51.515625 34.421875 
Q 51.515625 24.5625 49.703125 17.796875 
Q 47.90625 11.03125 44.703125 6.859375 
Q 41.5 2.6875 37.125 0.84375 
Q 32.765625 -0.984375 27.59375 -0.984375 
Q 22.40625 -0.984375 18.0625 0.828125 
Q 13.71875 2.640625 10.59375 6.8125 
Q 7.46875 10.984375 5.703125 17.75 
Q 3.953125 24.515625 3.953125 34.421875 
Q 3.953125 44.828125 5.6875 51.640625 
Q 7.421875 58.453125 10.59375 62.5 
Q 13.765625 66.546875 18.1875 68.1875 
Q 22.609375 69.828125 27.984375 69.828125 
Q 33.015625 69.828125 37.328125 68.1875 
Q 41.65625 66.546875 44.796875 62.5 
Q 47.953125 58.453125 49.734375 51.640625 
Q 51.515625 44.828125 51.515625 34.421875 
z
M 37.75 34.421875 
Q 37.75 41.703125 37.203125 46.453125 
Q 36.671875 51.21875 35.5 54.03125 
Q 34.328125 56.84375 32.4375 57.953125 
Q 30.5625 59.078125 27.875 59.078125 
Q 25 59.078125 23.046875 57.921875 
Q 21.09375 56.78125 19.890625 53.953125 
Q 18.703125 51.125 18.1875 46.359375 
Q 17.671875 41.609375 17.671875 34.421875 
Q 17.671875 27.34375 18.203125 22.609375 
Q 18.75 17.875 19.921875 15.015625 
Q 21.09375 12.15625 23 10.984375 
Q 24.90625 9.8125 27.6875 9.8125 
Q 30.375 9.8125 32.28125 10.984375 
Q 34.1875 12.15625 35.40625 15.015625 
Q 36.625 17.875 37.1875 22.609375 
Q 37.75 27.34375 37.75 34.421875 
z
" id="LiberationSans-Bold-30"/>
       <path d="M 6.78125 0 
L 6.78125 14.890625 
L 20.90625 14.890625 
L 20.90625 0 
z
" id="LiberationSans-Bold-2e"/>
      </defs>
      <g style="fill:#262626;" transform="translate(65.05 366.686875)scale(0.1 -0.1)">
       <use xlink:href="#LiberationSans-Bold-30"/>
       <use x="55.615234" xlink:href="#LiberationSans-Bold-2e"/>
       <use x="83.398438" xlink:href="#LiberationSans-Bold-30"/>
      </g>
     </g>
    </g>
    <g id="xtick_2">
     <g id="line2d_3">
      <path clip-path="url(#pcf00ef870c)" d="M 161.28 352.44 
L 161.28 47.52 
" style="fill:none;stroke:#cccccc;stroke-linecap:round;"/>
     </g>
     <g id="line2d_4"/>
     <g id="text_2">
      <!-- 0.2 -->
      <defs>
       <path d="M 3.46875 0 
L 3.46875 9.515625 
Q 5.8125 14.65625 9.171875 18.78125 
Q 12.546875 22.90625 16.234375 26.34375 
Q 19.921875 29.78125 23.5625 32.734375 
Q 27.203125 35.6875 30.109375 38.453125 
Q 33.015625 41.21875 34.8125 44 
Q 36.625 46.78125 36.625 49.90625 
Q 36.625 54.5 34.328125 56.6875 
Q 32.03125 58.890625 27.59375 58.890625 
Q 23.1875 58.890625 20.875 56.515625 
Q 18.5625 54.15625 17.875 49.421875 
L 4.046875 50.203125 
Q 4.546875 54.25 6.046875 57.8125 
Q 7.5625 61.375 10.375 64.0625 
Q 13.1875 66.75 17.40625 68.28125 
Q 21.625 69.828125 27.484375 69.828125 
Q 33.0625 69.828125 37.359375 68.53125 
Q 41.65625 67.234375 44.578125 64.734375 
Q 47.515625 62.25 49.015625 58.65625 
Q 50.53125 55.078125 50.53125 50.484375 
Q 50.53125 45.65625 48.625 41.75 
Q 46.734375 37.84375 43.75 34.546875 
Q 40.765625 31.25 37.125 28.359375 
Q 33.5 25.484375 30.078125 22.75 
Q 26.65625 20.015625 23.84375 17.234375 
Q 21.046875 14.453125 19.671875 11.28125 
L 51.609375 11.28125 
L 51.609375 0 
z
" id="LiberationSans-Bold-32"/>
      </defs>
      <g style="fill:#262626;" transform="translate(154.33 366.686875)scale(0.1 -0.1)">
       <use xlink:href="#LiberationSans-Bold-30"/>
       <use x="55.615234" xlink:href="#LiberationSans-Bold-2e"/>
       <use x="83.398438" xlink:href="#LiberationSans-Bold-32"/>
      </g>
     </g>
    </g>
    <g id="xtick_3">
     <g id="line2d_5">
      <path clip-path="url(#pcf00ef870c)" d="M 250.56 352.44 
L 250.56 47.52 
" style="fill:none;stroke:#cccccc;stroke-linecap:round;"/>
     </g>
     <g id="line2d_6"/>
     <g id="text_3">
      <!-- 0.4 -->
      <defs>
       <path d="M 45.90625 14.015625 
L 45.90625 0 
L 32.8125 0 
L 32.8125 14.015625 
L 1.515625 14.015625 
L 1.515625 24.3125 
L 30.5625 68.796875 
L 45.90625 68.796875 
L 45.90625 24.21875 
L 55.078125 24.21875 
L 55.078125 14.015625 
z
M 32.8125 46.734375 
Q 32.8125 47.5625 32.828125 48.90625 
Q 32.859375 50.25 32.9375 51.65625 
Q 33.015625 53.078125 33.078125 54.375 
Q 33.15625 55.671875 33.25 56.390625 
Q 33.015625 55.859375 32.46875 54.859375 
Q 31.9375 53.859375 31.265625 52.703125 
Q 30.609375 51.5625 29.90625 50.4375 
Q 29.203125 49.3125 28.65625 48.484375 
L 12.703125 24.21875 
L 32.8125 24.21875 
z
" id="LiberationSans-Bold-34"/>
      </defs>
      <g style="fill:#262626;" transform="translate(243.61 366.686875)scale(0.1 -0.1)">
       <use xlink:href="#LiberationSans-Bold-30"/>
       <use x="55.615234" xlink:href="#LiberationSans-Bold-2e"/>
       <use x="83.398438" xlink:href="#LiberationSans-Bold-34"/>
      </g>
     </g>
    </g>
    <g id="xtick_4">
     <g id="line2d_7">
      <path clip-path="url(#pcf00ef870c)" d="M 339.84 352.44 
L 339.84 47.52 
" style="fill:none;stroke:#cccccc;stroke-linecap:round;"/>
     </g>
     <g id="line2d_8"/>
     <g id="text_4">
      <!-- 0.6 -->
      <defs>
       <path d="M 52 22.515625 
Q 52 17.328125 50.53125 13 
Q 49.078125 8.6875 46.171875 5.578125 
Q 43.265625 2.484375 38.921875 0.75 
Q 34.578125 -0.984375 28.859375 -0.984375 
Q 16.703125 -0.984375 10.171875 7.53125 
Q 3.65625 16.0625 3.65625 32.8125 
Q 3.65625 51.21875 10.265625 60.515625 
Q 16.890625 69.828125 29.203125 69.828125 
Q 33.296875 69.828125 36.671875 68.96875 
Q 40.046875 68.109375 42.671875 66.203125 
Q 45.3125 64.3125 47.171875 61.296875 
Q 49.03125 58.296875 50.140625 54 
L 37.203125 52.203125 
Q 36.234375 55.8125 34.03125 57.390625 
Q 31.84375 58.984375 28.90625 58.984375 
Q 23.390625 58.984375 20.234375 53.46875 
Q 17.09375 47.953125 17.09375 36.71875 
Q 19.28125 40.375 23.1875 42.328125 
Q 27.09375 44.28125 32.03125 44.28125 
Q 36.578125 44.28125 40.265625 42.796875 
Q 43.953125 41.3125 46.5625 38.5 
Q 49.171875 35.6875 50.578125 31.640625 
Q 52 27.59375 52 22.515625 
z
M 38.234375 22.125 
Q 38.234375 24.90625 37.59375 27.125 
Q 36.96875 29.34375 35.671875 30.90625 
Q 34.375 32.46875 32.46875 33.328125 
Q 30.5625 34.1875 28.078125 34.1875 
Q 26.265625 34.1875 24.453125 33.59375 
Q 22.65625 33.015625 21.234375 31.71875 
Q 19.828125 30.421875 18.9375 28.421875 
Q 18.0625 26.421875 18.0625 23.578125 
Q 18.0625 20.65625 18.796875 18.109375 
Q 19.53125 15.578125 20.875 13.6875 
Q 22.21875 11.8125 24.125 10.765625 
Q 26.03125 9.71875 28.421875 9.71875 
Q 33.0625 9.71875 35.640625 13.015625 
Q 38.234375 16.3125 38.234375 22.125 
z
" id="LiberationSans-Bold-36"/>
      </defs>
      <g style="fill:#262626;" transform="translate(332.89 366.686875)scale(0.1 -0.1)">
       <use xlink:href="#LiberationSans-Bold-30"/>
       <use x="55.615234" xlink:href="#LiberationSans-Bold-2e"/>
       <use x="83.398438" xlink:href="#LiberationSans-Bold-36"/>
      </g>
     </g>
    </g>
    <g id="xtick_5">
     <g id="line2d_9">
      <path clip-path="url(#pcf00ef870c)" d="M 429.12 352.44 
L 429.12 47.52 
" style="fill:none;stroke:#cccccc;stroke-linecap:round;"/>
     </g>
     <g id="line2d_10"/>
     <g id="text_5">
      <!-- 0.8 -->
      <defs>
       <path d="M 52.546875 19.390625 
Q 52.546875 14.9375 51.078125 11.203125 
Q 49.609375 7.46875 46.578125 4.75 
Q 43.5625 2.046875 38.921875 0.53125 
Q 34.28125 -0.984375 27.875 -0.984375 
Q 21.53125 -0.984375 16.859375 0.53125 
Q 12.203125 2.046875 9.15625 4.75 
Q 6.109375 7.46875 4.640625 11.171875 
Q 3.171875 14.890625 3.171875 19.28125 
Q 3.171875 23.046875 4.34375 25.953125 
Q 5.515625 28.859375 7.46875 30.953125 
Q 9.421875 33.0625 11.953125 34.296875 
Q 14.5 35.546875 17.1875 35.984375 
L 17.1875 36.1875 
Q 14.3125 36.8125 12.015625 38.28125 
Q 9.71875 39.75 8.109375 41.796875 
Q 6.5 43.84375 5.640625 46.359375 
Q 4.78125 48.875 4.78125 51.609375 
Q 4.78125 55.71875 6.265625 59.078125 
Q 7.765625 62.453125 10.640625 64.84375 
Q 13.53125 67.234375 17.796875 68.53125 
Q 22.078125 69.828125 27.6875 69.828125 
Q 33.6875 69.828125 38.0625 68.484375 
Q 42.4375 67.140625 45.265625 64.71875 
Q 48.09375 62.3125 49.453125 58.9375 
Q 50.828125 55.5625 50.828125 51.515625 
Q 50.828125 48.828125 49.96875 46.3125 
Q 49.125 43.796875 47.515625 41.75 
Q 45.90625 39.703125 43.578125 38.28125 
Q 41.265625 36.859375 38.328125 36.28125 
L 38.328125 36.078125 
Q 41.359375 35.59375 43.96875 34.296875 
Q 46.578125 33.015625 48.484375 30.9375 
Q 50.390625 28.859375 51.46875 25.953125 
Q 52.546875 23.046875 52.546875 19.390625 
z
M 36.71875 50.78125 
Q 36.71875 52.828125 36.28125 54.5625 
Q 35.84375 56.296875 34.8125 57.546875 
Q 33.796875 58.796875 32.0625 59.5 
Q 30.328125 60.203125 27.6875 60.203125 
Q 25.140625 60.203125 23.4375 59.5 
Q 21.734375 58.796875 20.703125 57.546875 
Q 19.671875 56.296875 19.234375 54.5625 
Q 18.796875 52.828125 18.796875 50.78125 
Q 18.796875 48.96875 19.15625 47.203125 
Q 19.53125 45.453125 20.5 44.0625 
Q 21.484375 42.671875 23.234375 41.796875 
Q 25 40.921875 27.78125 40.921875 
Q 30.71875 40.921875 32.5 41.796875 
Q 34.28125 42.671875 35.203125 44.09375 
Q 36.140625 45.515625 36.421875 47.265625 
Q 36.71875 49.03125 36.71875 50.78125 
z
M 38.328125 20.515625 
Q 38.328125 22.609375 37.859375 24.5625 
Q 37.40625 26.515625 36.203125 28 
Q 35.015625 29.5 32.90625 30.390625 
Q 30.8125 31.296875 27.59375 31.296875 
Q 24.65625 31.296875 22.671875 30.390625 
Q 20.703125 29.5 19.5 27.984375 
Q 18.3125 26.46875 17.796875 24.484375 
Q 17.28125 22.515625 17.28125 20.3125 
Q 17.28125 17.71875 17.796875 15.5625 
Q 18.3125 13.421875 19.546875 11.890625 
Q 20.796875 10.359375 22.84375 9.515625 
Q 24.90625 8.6875 27.984375 8.6875 
Q 31.0625 8.6875 33.0625 9.546875 
Q 35.0625 10.40625 36.234375 11.96875 
Q 37.40625 13.53125 37.859375 15.703125 
Q 38.328125 17.875 38.328125 20.515625 
z
" id="LiberationSans-Bold-38"/>
      </defs>
      <g style="fill:#262626;" transform="translate(422.17 366.686875)scale(0.1 -0.1)">
       <use xlink:href="#LiberationSans-Bold-30"/>
       <use x="55.615234" xlink:href="#LiberationSans-Bold-2e"/>
       <use x="83.398438" xlink:href="#LiberationSans-Bold-38"/>
      </g>
     </g>
    </g>
    <g id="xtick_6">
     <g id="line2d_11">
      <path clip-path="url(#pcf00ef870c)" d="M 518.4 352.44 
L 518.4 47.52 
" style="fill:none;stroke:#cccccc;stroke-linecap:round;"/>
     </g>
     <g id="line2d_12"/>
     <g id="text_6">
      <!-- 1.0 -->
      <defs>
       <path d="M 6.296875 0 
L 6.296875 10.203125 
L 23.34375 10.203125 
L 23.34375 57.125 
L 6.84375 46.828125 
L 6.84375 57.625 
L 24.078125 68.796875 
L 37.0625 68.796875 
L 37.0625 10.203125 
L 52.828125 10.203125 
L 52.828125 0 
z
" id="LiberationSans-Bold-31"/>
      </defs>
      <g style="fill:#262626;" transform="translate(511.45 366.686875)scale(0.1 -0.1)">
       <use xlink:href="#LiberationSans-Bold-31"/>
       <use x="55.615234" xlink:href="#LiberationSans-Bold-2e"/>
       <use x="83.398438" xlink:href="#LiberationSans-Bold-30"/>
      </g>
     </g>
    </g>
   </g>
   <g id="matplotlib.axis_2">
    <g id="ytick_1">
     <g id="line2d_13">
      <path clip-path="url(#pcf00ef870c)" d="M 72 352.44 
L 518.4 352.44 
" style="fill:none;stroke:#cccccc;stroke-linecap:round;"/>
     </g>
     <g id="line2d_14"/>
     <g id="text_7">
      <!-- 0.0 -->
      <g style="fill:#262626;" transform="translate(51.1 356.063438)scale(0.1 -0.1)">
       <use xlink:href="#LiberationSans-Bold-30"/>
       <use x="55.615234" xlink:href="#LiberationSans-Bold-2e"/>
       <use x="83.398438" xlink:href="#LiberationSans-Bold-30"/>
      </g>
     </g>
    </g>
    <g id="ytick_2">
     <g id="line2d_15">
      <path clip-path="url(#pcf00ef870c)" d="M 72 291.456 
L 518.4 291.456 
" style="fill:none;stroke:#cccccc;stroke-linecap:round;"/>
     </g>
     <g id="line2d_16"/>
     <g id="text_8">
      <!-- 0.2 -->
      <g style="fill:#262626;" transform="translate(51.1 295.079437)scale(0.1 -0.1)">
       <use xlink:href="#LiberationSans-Bold-30"/>
       <use x="55.615234" xlink:href="#LiberationSans-Bold-2e"/>
       <use x="83.398438" xlink:href="#LiberationSans-Bold-32"/>
      </g>
     </g>
    </g>
    <g id="ytick_3">
     <g id="line2d_17">
      <path clip-path="url(#pcf00ef870c)" d="M 72 230.472 
L 518.4 230.472 
" style="fill:none;stroke:#cccccc;stroke-linecap:round;"/>
     </g>
     <g id="line2d_18"/>
     <g id="text_9">
      <!-- 0.4 -->
      <g style="fill:#262626;" transform="translate(51.1 234.095437)scale(0.1 -0.1)">
       <use xlink:href="#LiberationSans-Bold-30"/>
       <use x="55.615234" xlink:href="#LiberationSans-Bold-2e"/>
       <use x="83.398438" xlink:href="#LiberationSans-Bold-34"/>
      </g>
     </g>
    </g>
    <g id="ytick_4">
     <g id="line2d_19">
      <path clip-path="url(#pcf00ef870c)" d="M 72 169.488 
L 518.4 169.488 
" style="fill:none;stroke:#cccccc;stroke-linecap:round;"/>
     </g>
     <g id="line2d_20"/>
     <g id="text_10">
      <!-- 0.6 -->
      <g style="fill:#262626;" transform="translate(51.1 173.111437)scale(0.1 -0.1)">
       <use xlink:href="#LiberationSans-Bold-30"/>
       <use x="55.615234" xlink:href="#LiberationSans-Bold-2e"/>
       <use x="83.398438" xlink:href="#LiberationSans-Bold-36"/>
      </g>
     </g>
    </g>
    <g id="ytick_5">
     <g id="line2d_21">
      <path clip-path="url(#pcf00ef870c)" d="M 72 108.504 
L 518.4 108.504 
" style="fill:none;stroke:#cccccc;stroke-linecap:round;"/>
     </g>
     <g id="line2d_22"/>
     <g id="text_11">
      <!-- 0.8 -->
      <g style="fill:#262626;" transform="translate(51.1 112.127437)scale(0.1 -0.1)">
       <use xlink:href="#LiberationSans-Bold-30"/>
       <use x="55.615234" xlink:href="#LiberationSans-Bold-2e"/>
       <use x="83.398438" xlink:href="#LiberationSans-Bold-38"/>
      </g>
     </g>
    </g>
    <g id="ytick_6">
     <g id="line2d_23">
      <path clip-path="url(#pcf00ef870c)" d="M 72 47.52 
L 518.4 47.52 
" style="fill:none;stroke:#cccccc;stroke-linecap:round;"/>
     </g>
     <g id="line2d_24"/>
     <g id="text_12">
      <!-- 1.0 -->
      <g style="fill:#262626;" transform="translate(51.1 51.143438)scale(0.1 -0.1)">
       <use xlink:href="#LiberationSans-Bold-31"/>
       <use x="55.615234" xlink:href="#LiberationSans-Bold-2e"/>
       <use x="83.398438" xlink:href="#LiberationSans-Bold-30"/>
      </g>
     </g>
    </g>
   </g>
   <g id="patch_3">
    <path clip-path="url(#pcf00ef870c)" d="M 116.64 154.242 
L 384.48 154.242 
L 384.48 108.504 
L 116.64 108.504 
z
" style="opacity:0.3;stroke:#000000;stroke-linejoin:miter;stroke-width:0.3;"/>
   </g>
   <g id="patch_4">
    <path clip-path="url(#pcf00ef870c)" d="M 295.2 337.194 
C 312.958 337.194 329.991068 332.374756 342.54787 323.79765 
C 355.104672 315.220544 362.16 303.585859 362.16 291.456 
C 362.16 279.326141 355.104672 267.691456 342.54787 259.11435 
C 329.991068 250.537244 312.958 245.718 295.2 245.718 
C 277.442 245.718 260.408932 250.537244 247.85213 259.11435 
C 235.295328 267.691456 228.24 279.326141 228.24 291.456 
C 228.24 303.585859 235.295328 315.220544 247.85213 323.79765 
C 260.408932 332.374756 277.442 337.194 295.2 337.194 
z
" style="fill:#00bfbf;opacity:0.3;stroke:#00bfbf;stroke-linejoin:miter;stroke-width:0.3;"/>
   </g>
   <g id="patch_5">
    <path clip-path="url(#pcf00ef870c)" d="M 138.96 306.702 
L 205.92 260.964 
L 228.24 230.472 
L 161.28 169.488 
L 116.64 215.226 
z
" style="fill:#008000;opacity:0.5;stroke:#008000;stroke-linejoin:miter;stroke-width:0.3;"/>
   </g>
   <g id="patch_6">
    <path d="M 72 352.44 
L 72 47.52 
" style="fill:none;stroke:#cccccc;stroke-linecap:square;stroke-linejoin:miter;"/>
   </g>
   <g id="patch_7">
    <path d="M 518.4 352.44 
L 518.4 47.52 
" style="fill:none;stroke:#cccccc;stroke-linecap:square;stroke-linejoin:miter;"/>
   </g>
   <g id="patch_8">
    <path d="M 72 352.44 
L 518.4 352.44 
" style="fill:none;stroke:#cccccc;stroke-linecap:square;stroke-linejoin:miter;"/>
   </g>
   <g id="patch_9">
    <path d="M 72 47.52 
L 518.4 47.52 
" style="fill:none;stroke:#cccccc;stroke-linecap:square;stroke-linejoin:miter;"/>
   </g>
  </g>
 </g>
 <defs>
  <clipPath id="pcf00ef870c">
   <rect height="304.92" width="446.4" x="72" y="47.52"/>
  </clipPath>
 </defs>
</svg>
